<svg enable-background="new 0 0 32 32" height="512" viewBox="0 0 32 32" width="512" xmlns="http://www.w3.org/2000/svg"><g id="BG"><path d="m26 32h-20c-3.314 0-6-2.686-6-6v-20c0-3.314 2.686-6 6-6h20c3.314 0 6 2.686 6 6v20c0 3.314-2.686 6-6 6z" fill="#fff9dd"/></g><g id="bold_v2"><path d="m16 8c-4.411 0-8 3.589-8 8s3.589 8 8 8 8-3.589 8-8-3.589-8-8-8zm2.391 3.057c.52-.52 1.366-.52 1.885 0 .195.195.195.512 0 .707-.098.098-.225.146-.354.146s-.256-.049-.354-.146c-.13-.13-.341-.13-.471 0-.195.195-.512.195-.707 0s-.195-.511.001-.707zm-6.667 0c.52-.52 1.366-.52 1.885 0 .195.195.195.512 0 .707-.098.098-.225.146-.354.146s-.255-.048-.353-.146c-.13-.13-.341-.13-.471 0-.195.195-.512.195-.707 0s-.195-.511 0-.707zm.943 4.943c-.735 0-1.333-.598-1.333-1.333s.598-1.333 1.333-1.333 1.333.598 1.333 1.333-.598 1.333-1.333 1.333zm3.333 5.967c-1.103 0-2-1.032-2-2.3s.897-2.3 2-2.3 2 1.032 2 2.3-.897 2.3-2 2.3zm3.333-5.967c-.735 0-1.333-.598-1.333-1.333s.598-1.333 1.333-1.333 1.333.598 1.333 1.333-.598 1.333-1.333 1.333z" fill="#ffd200"/></g></svg>