<svg enable-background="new 0 0 32 32" height="512" viewBox="0 0 32 32" width="512" xmlns="http://www.w3.org/2000/svg"><g id="BG"><path d="m26 32h-20c-3.314 0-6-2.686-6-6v-20c0-3.314 2.686-6 6-6h20c3.314 0 6 2.686 6 6v20c0 3.314-2.686 6-6 6z" fill="#ffe6e2"/></g><g id="bold_v2"><path d="m16 8c-4.411 0-8 3.589-8 8s3.589 8 8 8 8-3.589 8-8-3.589-8-8-8zm1.833 4.5c.276 0 .5.224.5.5 0 .368.299.667.667.667s.667-.299.667-.667c0-.276.224-.5.5-.5s.5.224.5.5c0 .919-.747 1.667-1.667 1.667s-1.667-.748-1.667-1.667c0-.276.224-.5.5-.5zm-6 0c.276 0 .5.224.5.5 0 .368.299.667.667.667s.667-.299.667-.667c0-.276.224-.5.5-.5s.5.224.5.5c0 .919-.747 1.667-1.667 1.667s-1.667-.748-1.667-1.667c0-.276.224-.5.5-.5zm9.075 7.976c-.094.132-.245.211-.408.211h-9c-.162 0-.314-.078-.408-.211-.094-.132-.118-.301-.064-.454.739-2.107 2.737-3.522 4.972-3.522s4.233 1.415 4.972 3.522c.053.152.029.322-.064.454z" fill="#fc573b"/></g></svg>