<svg enable-background="new 0 0 32 32" height="512" viewBox="0 0 32 32" width="512" xmlns="http://www.w3.org/2000/svg"><g id="BG"><path d="m26 32h-20c-3.314 0-6-2.686-6-6v-20c0-3.314 2.686-6 6-6h20c3.314 0 6 2.686 6 6v20c0 3.314-2.686 6-6 6z" fill="#ffe6e2"/></g><g id="bold_v2"><path d="m24 10.207c0-.86-.733-1.56-1.633-1.56-.38 0-.747.133-1.033.36-.287-.227-.653-.36-1.033-.36-.273 0-.533.067-.767.18-1.067-.527-2.267-.82-3.534-.82-4.413 0-8 3.587-8 8 0 1.26.293 2.46.813 3.52-.486.266-.813.773-.813 1.346 0 1.34 1.98 2.787 2.38 3.067.087.06.187.093.287.093s.2-.033.287-.093c.18-.127.667-.48 1.153-.947 1.153.647 2.48 1.013 3.893 1.013 4.413 0 8-3.587 8-8 0-1.413-.367-2.74-1.013-3.893.533-.56 1.013-1.253 1.013-1.906zm-12.767 12.22c-.187.173-.38.333-.567.48-.753-.58-1.666-1.5-1.666-2.034 0-.207.127-.387.313-.48.093-.053.2-.08.32-.08.1 0 .193.02.273.067.133.053.247.153.307.28.127.273.493.333.733.187.073-.04.133-.107.173-.187.1-.207.327-.347.58-.347.353 0 .633.253.633.56 0 .227-.16.513-.407.82-.087.127-.2.253-.327.38-.111.12-.238.24-.365.354zm1.767-9.087c.92 0 1.667.747 1.667 1.667 0 .273-.227.5-.5.5s-.5-.227-.5-.5c0-.367-.3-.667-.667-.667s-.667.3-.667.667c0 .273-.227.5-.5.5s-.5-.227-.5-.5c0-.92.747-1.667 1.667-1.667zm-.853 5.073c-.193-.2-.193-.513 0-.713.193-.193.513-.193.707 0 .127.127.267.253.407.36.78.62 1.733.947 2.74.947s1.96-.327 2.74-.947c.14-.107.28-.233.407-.36.193-.193.513-.193.707 0 .193.2.193.513 0 .713-1.027 1.027-2.4 1.593-3.853 1.593s-2.829-.566-3.855-1.593zm8.02-2.906c-.273 0-.5-.227-.5-.5 0-.367-.3-.667-.667-.667s-.667.3-.667.667c0 .273-.227.5-.5.5s-.5-.227-.5-.5c0-.92.747-1.667 1.667-1.667s1.667.747 1.667 1.667c0 .273-.227.5-.5.5zm1.9-3.9c-.12.113-.247.227-.373.333-.12.107-.24.207-.36.3-.753-.58-1.667-1.5-1.667-2.033 0-.053.007-.1.027-.147.047-.16.18-.3.353-.367h.007c.073-.033.16-.047.247-.047.253 0 .48.14.58.347.113.24.407.313.64.233.113-.04.213-.12.267-.233.1-.207.327-.347.58-.347.352.001.632.254.632.561 0 .28-.24.653-.58 1.033-.107.12-.227.247-.353.367z" fill="#fc573b"/></g></svg>