<svg enable-background="new 0 0 32 32" height="512" viewBox="0 0 32 32" width="512" xmlns="http://www.w3.org/2000/svg"><g id="BG"><path d="m26 32h-20c-3.314 0-6-2.686-6-6v-20c0-3.314 2.686-6 6-6h20c3.314 0 6 2.686 6 6v20c0 3.314-2.686 6-6 6z" fill="#f5e6fe"/></g><g id="bold_v2"><path d="m16 8c-4.418 0-8 3.582-8 8s3.582 8 8 8 8-3.582 8-8-3.582-8-8-8zm-3.333 7.333c-.735 0-1.333-.598-1.333-1.333s.598-1.333 1.333-1.333 1.333.598 1.333 1.333-.598 1.333-1.333 1.333zm5.52 5.613c-.098.098-.226.146-.354.146s-.256-.049-.354-.146c-.79-.79-2.169-.79-2.96 0-.195.195-.512.195-.707 0s-.195-.512 0-.707c.584-.584 1.361-.906 2.187-.906s1.603.322 2.187.906c.196.196.196.512.001.707zm-.187-6.946c0-.735.598-1.333 1.333-1.333s1.333.598 1.333 1.333-.598 1.333-1.333 1.333-1.333-.598-1.333-1.333zm2 5.333c-.735 0-1.333-.598-1.333-1.333 0-.556.645-1.549.922-1.951.187-.27.636-.27.823 0 .277.401.922 1.395.922 1.951-.001.735-.599 1.333-1.334 1.333z" fill="#be63f9"/></g></svg>