<svg enable-background="new 0 0 32 32" height="512" viewBox="0 0 32 32" width="512" xmlns="http://www.w3.org/2000/svg"><g id="BG" fill="#e3f8fa"><path d="m26 32h-20c-3.314 0-6-2.686-6-6v-20c0-3.314 2.686-6 6-6h20c3.314 0 6 2.686 6 6v20c0 3.314-2.686 6-6 6z"/><path d="m26 32h-20c-3.314 0-6-2.686-6-6v-20c0-3.314 2.686-6 6-6h20c3.314 0 6 2.686 6 6v20c0 3.314-2.686 6-6 6z"/></g><g id="bold_v2"><path d="m16 8c-4.413 0-8 3.587-8 8s3.587 8 8 8 8-3.587 8-8-3.587-8-8-8zm0 14.147c-2.6 0-4.873-1.673-5.647-4.167-.047-.153-.02-.313.08-.44.093-.133.24-.207.4-.207h10.333c.16 0 .307.073.4.207.1.127.127.287.08.44-.773 2.493-3.046 4.167-5.646 4.167zm-1.5-7.98c0 .273-.227.5-.5.5h-3c-.273 0-.5-.227-.5-.5s.227-.5.5-.5h3c.273 0 .5.226.5.5zm3.333-.167c0-.733.6-1.333 1.333-1.333s1.333.6 1.333 1.333-.6 1.333-1.333 1.333-1.333-.6-1.333-1.333z" fill="#26c6da"/></g></svg>